<mxfile host="app.diagrams.net" agent="Mozilla/5.0 (Windows NT 10.0; Win64; x64) AppleWebKit/537.36 (KHTML, like Gecko) Chrome/127.0.0.0 Safari/537.36" version="24.7.16">
  <diagram name="第 1 页" id="Rd5CMDf7BfV2zbjOf2Hp">
    <mxGraphModel dx="1434" dy="738" grid="1" gridSize="10" guides="1" tooltips="1" connect="1" arrows="1" fold="1" page="1" pageScale="1" pageWidth="1169" pageHeight="827" math="0" shadow="0">
      <root>
        <mxCell id="0" />
        <mxCell id="1" parent="0" />
        <mxCell id="d-3LwC6AzetS7NmKnezr-26" value="ASB" style="swimlane;whiteSpace=wrap;html=1;fillColor=#ffcd28;gradientColor=#ffa500;strokeColor=#d79b00;fontSize=14;" vertex="1" parent="1">
          <mxGeometry x="690" y="150" width="330" height="280" as="geometry" />
        </mxCell>
        <mxCell id="d-3LwC6AzetS7NmKnezr-29" value="Circular FIFO" style="rounded=0;whiteSpace=wrap;html=1;verticalAlign=top;" vertex="1" parent="d-3LwC6AzetS7NmKnezr-26">
          <mxGeometry x="30" y="60" width="110" height="150" as="geometry" />
        </mxCell>
        <mxCell id="d-3LwC6AzetS7NmKnezr-31" value="Core&lt;div&gt;(ALU+CU)&lt;/div&gt;" style="rounded=0;whiteSpace=wrap;html=1;" vertex="1" parent="1">
          <mxGeometry x="450" y="200" width="120" height="60" as="geometry" />
        </mxCell>
      </root>
    </mxGraphModel>
  </diagram>
</mxfile>
